<?xml version="1.0" encoding="UTF-8"?>
<svg id="Layer_2" data-name="Layer 2" xmlns="http://www.w3.org/2000/svg" viewBox="0 0 1372.62 1452.6">
  <defs>
    <style>
      .cls-1 {
        fill: #f7f7f7;
      }

      .cls-1, .cls-2, .cls-3, .cls-4, .cls-5 {
        stroke-width: 0px;
      }

      .cls-2 {
        fill: #eaaf7f;
      }

      .cls-3 {
        fill: #ffa1d2;
      }

      .cls-6 {
        fill: none;
        stroke: #231f20;
        stroke-linecap: round;
        stroke-linejoin: round;
        stroke-width: 7px;
      }

      .cls-4 {
        fill: #231f20;
      }

      .cls-5 {
        fill: #6ba2f9;
      }
    </style>
  </defs>
  <g id="Layer_1-2" data-name="Layer 1">
    <g>
      <rect class="cls-2" x="-591.79" y="713.48" width="1441.34" height="39.67" transform="translate(-615.4 753.18) rotate(-81.56)"/>
      <rect class="cls-6" x="-591.79" y="713.48" width="1441.34" height="39.67" transform="translate(-615.4 753.18) rotate(-81.56)"/>
      <path class="cls-4" d="m123.31,635.77l-8.64,58.23c11.75-4.28,27.17-9.91,42.39-15.43l6.07-40.9-39.81-1.9Z"/>
      <g>
        <path class="cls-5" d="m1354.65,311.38c-34.42-.19-175.68,8.68-208.67,15.28-89.86,17.99-174.26,60.97-268.31,52.07-76.28-7.22-247.32-77.36-314.95-110.22-80.12-38.92-148.45-90.63-237.46-111.87-43.57-10.41-89.07-10.15-130.83-.21l4.08-27.53,10.4-70.1c12.59-2.7,25.28-4.51,38.03-5.53,87.12-6.94,176.94,23.56,254.76,68.45,74.05,42.71,241.66,124.93,325.47,132.53,87.53,7.93,173.04-38.83,260.55-54.67,58.32-10.55,225.22-12.83,281.39,4.21l-9.65,71.73-4.82,35.86Z"/>
        <path class="cls-3" d="m1338.5,431.5c-42.79-2.25-192.55,6.39-233.45,14.57-89.86,17.99-174.26,60.97-268.31,52.07-76.28-7.22-247.32-77.36-314.95-110.21-80.11-38.92-148.45-90.64-237.46-111.88-35.39-8.45-72.05-9.86-106.93-4.77l7.87-53.06,9.17-61.78c41.75-9.94,87.25-10.19,130.83.21,89.01,21.24,157.35,72.95,237.46,111.87,67.63,32.86,238.67,103,314.95,110.22,94.06,8.91,178.45-34.08,268.31-52.07,32.99-6.6,174.25-15.48,208.67-15.28l-7.22,53.71-8.93,66.41Z"/>
        <path class="cls-1" d="m1323.74,541.31c-50.23-4.77-207.76,3.32-255.76,12.93-89.86,17.99-174.26,60.97-268.31,52.07-76.28-7.22-247.32-77.36-314.95-110.21-80.11-38.92-148.45-90.63-237.46-111.88-28.23-6.74-57.27-9-85.57-7.06l10.07-67.87,5.64-38.01c34.89-5.09,71.54-3.67,106.93,4.77,89.01,21.24,157.35,72.95,237.46,111.88,67.63,32.85,238.67,102.99,314.95,110.21,94.06,8.91,178.45-34.08,268.31-52.07,40.89-8.18,190.66-16.82,233.45-14.57l-3.35,24.96-11.41,84.85Z"/>
        <path class="cls-3" d="m1307.29,663.61c-58.26-8.25-224.44-1.13-280.24,10.03-89.86,17.99-174.26,60.97-268.31,52.07-76.28-7.22-247.32-77.36-314.95-110.21-80.11-38.92-148.45-90.63-237.46-111.88-20.53-4.9-41.48-7.44-62.26-7.71l.89-6,13.39-90.24,3.34-22.52c28.3-1.94,57.34.32,85.57,7.06,89.01,21.25,157.35,72.95,237.46,111.88,67.63,32.85,238.67,102.99,314.95,110.21,94.06,8.91,178.45-34.08,268.31-52.07,48-9.61,205.53-17.69,255.76-12.93l-.78,5.85-12.18,90.54-3.48,25.91Z"/>
        <path class="cls-5" d="m1290.07,791.61c-188.06-27.9-492.85,96.45-665.6,12.22-55.29-26.96-200.81-92.86-255.87-120.39-64.86-32.43-137.12-46.56-209-41.52-12.65.87-25.29,2.36-37.87,4.44l11.27-75.92,11.06-74.53c20.79.27,41.73,2.81,62.26,7.71,89.01,21.25,179.99,61.87,260.1,100.8,67.63,32.85,216.03,114.07,292.31,121.29,94.06,8.91,178.45-34.08,268.31-52.07,55.8-11.17,221.98-18.29,280.24-10.03l-7.38,54.89-9.84,73.12Z"/>
      </g>
      <g>
        <path class="cls-6" d="m1354.65,311.38c-34.42-.19-175.68,8.68-208.67,15.28-89.86,17.99-174.26,60.97-268.31,52.07-76.28-7.22-247.32-77.36-314.95-110.22-80.12-38.92-148.45-90.63-237.46-111.87-43.57-10.41-89.07-10.15-130.83-.21l4.08-27.53,10.4-70.1c12.59-2.7,25.28-4.51,38.03-5.53,87.12-6.94,176.94,23.56,254.76,68.45,74.05,42.71,241.66,124.93,325.47,132.53,87.53,7.93,173.04-38.83,260.55-54.67,58.32-10.55,225.22-12.83,281.39,4.21l-9.65,71.73-4.82,35.86Z"/>
        <path class="cls-6" d="m1338.5,431.5c-42.79-2.25-192.55,6.39-233.45,14.57-89.86,17.99-174.26,60.97-268.31,52.07-76.28-7.22-247.32-77.36-314.95-110.21-80.11-38.92-148.45-90.64-237.46-111.88-35.39-8.45-72.05-9.86-106.93-4.77l7.87-53.06,9.17-61.78c41.75-9.94,87.25-10.19,130.83.21,89.01,21.24,157.35,72.95,237.46,111.87,67.63,32.86,238.67,103,314.95,110.22,94.06,8.91,178.45-34.08,268.31-52.07,32.99-6.6,174.25-15.48,208.67-15.28l-7.22,53.71-8.93,66.41Z"/>
        <path class="cls-6" d="m1323.74,541.31c-50.23-4.77-207.76,3.32-255.76,12.93-89.86,17.99-174.26,60.97-268.31,52.07-76.28-7.22-247.32-77.36-314.95-110.21-80.11-38.92-148.45-90.63-237.46-111.88-28.23-6.74-57.27-9-85.57-7.06l10.07-67.87,5.64-38.01c34.89-5.09,71.54-3.67,106.93,4.77,89.01,21.24,157.35,72.95,237.46,111.88,67.63,32.85,238.67,102.99,314.95,110.21,94.06,8.91,178.45-34.08,268.31-52.07,40.89-8.18,190.66-16.82,233.45-14.57l-3.35,24.96-11.41,84.85Z"/>
        <path class="cls-6" d="m1307.29,663.61c-58.26-8.25-224.44-1.13-280.24,10.03-89.86,17.99-174.26,60.97-268.31,52.07-76.28-7.22-224.68-88.44-292.31-121.29-80.11-38.92-171.1-79.55-260.1-100.8-20.53-4.9-41.48-7.44-62.26-7.71l.89-6,13.39-90.24,3.34-22.52c28.3-1.94,57.34.32,85.57,7.06,89.01,21.25,157.35,72.95,237.46,111.88,67.63,32.85,238.67,102.99,314.95,110.21,94.06,8.91,178.45-34.08,268.31-52.07,48-9.61,205.53-17.69,255.76-12.93l-.78,5.85-12.18,90.54-3.48,25.91Z"/>
        <path class="cls-6" d="m1290.07,791.61c-188.06-27.9-492.85,96.45-665.6,12.22-55.29-26.96-200.81-92.86-255.87-120.39-64.86-32.43-137.12-46.56-209-41.52-12.65.87-25.29,2.36-37.87,4.44l11.27-75.92,11.06-74.53c20.79.27,41.73,2.81,62.26,7.71,89.01,21.25,179.99,61.87,260.1,100.8,67.63,32.85,216.03,114.07,292.31,121.29,94.06,8.91,178.45-34.08,268.31-52.07,55.8-11.17,221.98-18.29,280.24-10.03l-7.38,54.89-9.84,73.12Z"/>
      </g>
      <rect class="cls-2" x="198.02" y="7.08" width="75.95" height="27.13" rx="13.56" ry="13.56" transform="translate(466.41 75.71) rotate(-171.56)"/>
      <rect class="cls-6" x="198.02" y="7.08" width="75.95" height="27.13" rx="13.56" ry="13.56" transform="translate(466.41 75.71) rotate(-171.56)"/>
    </g>
  </g>
</svg>